<?xml version="1.0" encoding="utf-8"?>
<!-- Generator: Adobe Illustrator 20.1.0, SVG Export Plug-In . SVG Version: 6.00 Build 0)  -->
<svg version="1.1" id="Layer_1" xmlns="http://www.w3.org/2000/svg" xmlns:xlink="http://www.w3.org/1999/xlink" x="0px" y="0px"
	 viewBox="0 0 1436 232.1" style="enable-background:new 0 0 1436 232.1;" xml:space="preserve">
<style type="text/css">
	.st0{fill:url(#SVGID_1_);}
</style>
<linearGradient id="SVGID_1_" gradientUnits="userSpaceOnUse" x1="-8.569117e-02" y1="116.7241" x2="231.9745" y2="116.7241">
	<stop  offset="0" style="stop-color:#175A9D"/>
	<stop  offset="0.6311" style="stop-color:#3F98A1"/>
	<stop  offset="1" style="stop-color:#57C09C"/>
</linearGradient>
<path class="st0" d="M224.4,0.7H7.5c-4.2,0-7.6,3.4-7.6,7.6v216.9c0,4.2,3.4,7.6,7.6,7.6h96c0.1,0,0.2,0,0.3,0h1.3
	c2.5,0,4.5-2,4.5-4.5v-104c0-2.5-2-4.5-4.5-4.5H73.3c-2.5,0-4.5,2-4.5,4.5v68.4H47.7c-4.2,0-7.6-3.4-7.6-7.6V48.5
	c0-4.2,3.4-7.6,7.6-7.6h136.5c4.2,0,7.6,3.4,7.6,7.6V185c0,4-3.2,7.3-7.1,7.5H147c-2.5,0-4.5,2-4.5,4.5v31.1c0,2.5,2,4.5,4.5,4.5
	h61.9c0,0,0,0,0.1,0h15.4c4.2,0,7.6-3.4,7.6-7.6V8.3C232,4.1,228.6,0.7,224.4,0.7z"/>
<path d="M421,102.1v71.9c-3.6,2.2-7.6,4.1-12.1,5.8c-4.5,1.6-9.2,3.1-14.1,4.2c-4.9,1.2-9.8,2-14.8,2.6c-5,0.5-9.7,0.8-14.1,0.8
	c-12.4,0-23.4-2.1-33-6.2c-9.7-4.1-17.8-9.7-24.5-16.7c-6.7-7-11.7-15.1-15.2-24.4c-3.5-9.3-5.3-19-5.3-29.3
	c0-10.8,1.9-20.9,5.7-30.3c3.8-9.3,9-17.4,15.6-24.3c6.7-6.9,14.7-12.3,24-16.2c9.3-3.9,19.6-5.9,30.7-5.9c13.5,0,24.4,1.7,32.9,5
	c8.5,3.4,15.6,8,21.4,13.9l-14,15c-6-5.8-12.4-9.8-19.1-12c-6.7-2.3-13.8-3.4-21.2-3.4c-8.4,0-15.9,1.5-22.7,4.6
	c-6.7,3.1-12.5,7.2-17.3,12.5c-4.8,5.2-8.5,11.4-11.1,18.4c-2.6,7.1-3.9,14.6-3.9,22.5c0,8.2,1.4,15.9,4.3,23
	c2.9,7.1,6.9,13.2,11.9,18.4c5.1,5.2,11,9.3,17.9,12.3c6.9,3,14.3,4.4,22.4,4.4c7,0,13.6-0.6,19.9-2c6.2-1.3,11.6-3.2,16-5.7v-40.6
	h-32.3v-18.5H421z"/>
<path d="M448.2,86h18.5v15h0.4c1.2-2.6,2.9-5,4.9-7.1c2.1-2.1,4.4-3.9,6.9-5.5c2.5-1.5,5.3-2.7,8.3-3.6c3-0.9,6-1.3,9.1-1.3
	c3,0,5.8,0.4,8.2,1.2l-0.8,20c-1.5-0.4-3-0.8-4.5-1c-1.5-0.3-3-0.4-4.5-0.4c-9.1,0-16,2.5-20.8,7.6c-4.8,5.1-7.2,13-7.2,23.7v49
	h-18.5V86z"/>
<path d="M528.9,97.9c5.2-4.8,11.3-8.4,18.1-10.8c6.9-2.4,13.7-3.6,20.6-3.6c7.1,0,13.3,0.9,18.4,2.7c5.1,1.8,9.4,4.2,12.7,7.2
	c3.3,3,5.7,6.5,7.3,10.4c1.6,3.9,2.4,8,2.4,12.3v49.8c0,3.4,0.1,6.6,0.2,9.5c0.1,2.9,0.3,5.6,0.6,8.2h-16.5
	c-0.4-4.9-0.6-9.9-0.6-14.8h-0.4c-4.1,6.3-9,10.8-14.6,13.4c-5.6,2.6-12.1,3.9-19.6,3.9c-4.5,0-8.9-0.6-13-1.9s-7.7-3.1-10.8-5.6
	s-5.5-5.5-7.3-9.2c-1.8-3.6-2.7-7.9-2.7-12.7c0-6.3,1.4-11.6,4.2-15.9c2.8-4.3,6.7-7.7,11.5-10.4c4.9-2.7,10.6-4.6,17.1-5.8
	c6.5-1.2,13.5-1.8,20.9-1.8h13.6v-4.1c0-2.5-0.5-4.9-1.4-7.4c-1-2.5-2.4-4.7-4.3-6.7c-1.9-2-4.3-3.6-7.2-4.7
	c-2.9-1.2-6.3-1.8-10.3-1.8c-3.6,0-6.7,0.3-9.4,1c-2.7,0.7-5.1,1.5-7.3,2.6c-2.2,1-4.2,2.2-6,3.6c-1.8,1.4-3.5,2.7-5.1,3.9
	L528.9,97.9z M581.2,136.7c-4.4,0-8.9,0.2-13.5,0.7c-4.6,0.5-8.8,1.4-12.6,2.8c-3.8,1.4-6.9,3.3-9.3,5.8c-2.4,2.5-3.6,5.6-3.6,9.5
	c0,5.6,1.9,9.7,5.7,12.1c3.8,2.5,8.9,3.7,15.3,3.7c5.1,0,9.4-0.9,13-2.6c3.6-1.7,6.5-3.9,8.6-6.7c2.2-2.7,3.8-5.8,4.7-9.2
	c1-3.4,1.4-6.7,1.4-10v-6.2H581.2z"/>
<path d="M700,102.1h-26.6v44.3c0,2.7,0.1,5.5,0.2,8.1c0.1,2.7,0.6,5.1,1.5,7.2c0.9,2.1,2.3,3.8,4.1,5.1c1.9,1.3,4.6,2,8.1,2
	c2.2,0,4.5-0.2,6.8-0.6c2.3-0.4,4.5-1.2,6.4-2.3v16.9c-2.2,1.2-5,2.1-8.5,2.6c-3.5,0.5-6.2,0.7-8.1,0.7c-7.1,0-12.7-1-16.6-3
	c-3.9-2-6.8-4.6-8.6-7.7c-1.9-3.2-3-6.7-3.3-10.6c-0.3-3.9-0.5-7.9-0.5-11.8v-50.9h-21.4V86h21.4V58.6h18.5V86H700V102.1z"/>
<path d="M746.2,141.6c0,4.3,0.9,8.1,2.8,11.6c1.9,3.5,4.3,6.5,7.3,9c3,2.5,6.5,4.4,10.5,5.8c4,1.4,8.1,2.1,12.4,2.1
	c5.8,0,10.8-1.3,15-4c4.3-2.7,8.2-6.2,11.7-10.6l14,10.7c-10.3,13.3-24.7,20-43.2,20c-7.7,0-14.7-1.3-20.9-3.9
	c-6.2-2.6-11.5-6.2-15.9-10.8c-4.3-4.6-7.7-10-10-16.3c-2.3-6.2-3.5-13-3.5-20.3c0-7.3,1.3-14,3.8-20.3c2.5-6.2,6-11.7,10.5-16.3
	c4.5-4.6,9.8-8.2,16-10.8c6.2-2.6,12.9-3.9,20.2-3.9c8.6,0,16,1.5,21.9,4.5c6,3,10.9,7,14.7,11.8c3.8,4.9,6.6,10.4,8.3,16.5
	c1.7,6.1,2.6,12.3,2.6,18.6v6.6H746.2z M804.6,126.8c-0.1-4.1-0.8-7.9-2-11.3c-1.2-3.4-2.9-6.4-5.3-9c-2.3-2.5-5.3-4.5-8.8-6
	s-7.6-2.2-12.3-2.2c-4.5,0-8.7,0.9-12.5,2.6c-3.8,1.7-7,3.9-9.6,6.7c-2.6,2.7-4.6,5.8-6.1,9.2c-1.4,3.4-2.2,6.7-2.2,10H804.6z"/>
<path d="M859.6,37.8h25.9l80.3,119.8h0.4V37.8H986v145.8h-25.1L879.8,63.8h-0.4v119.8h-19.8V37.8z"/>
<path d="M1014,134.8c0-7.1,1.3-13.8,4-20c2.7-6.2,6.3-11.6,11-16.3c4.7-4.7,10.2-8.3,16.5-11c6.3-2.7,13.1-4,20.4-4
	c7.3,0,14.1,1.3,20.4,4c6.3,2.7,11.8,6.4,16.5,11c4.7,4.7,8.3,10.1,11,16.3c2.7,6.2,4,12.8,4,20c0,7.1-1.3,13.8-4,20.1
	c-2.7,6.2-6.4,11.7-11,16.3c-4.7,4.6-10.2,8.2-16.5,10.9c-6.3,2.7-13.1,4-20.4,4c-7.3,0-14.1-1.3-20.4-4
	c-6.3-2.7-11.8-6.3-16.5-10.9c-4.7-4.6-8.3-10-11-16.3C1015.4,148.6,1014,141.9,1014,134.8z M1033.8,134.8c0,4.9,0.8,9.5,2.3,13.7
	c1.5,4.2,3.6,7.8,6.4,10.7c2.7,3,6.1,5.3,10.1,7c4,1.7,8.4,2.6,13.4,2.6c4.9,0,9.4-0.9,13.4-2.6c4-1.7,7.3-4,10.1-7
	c2.7-3,4.9-6.5,6.4-10.7c1.5-4.2,2.3-8.8,2.3-13.7s-0.8-9.5-2.3-13.7c-1.5-4.2-3.6-7.8-6.4-10.7c-2.7-3-6.1-5.3-10.1-7
	c-4-1.7-8.4-2.6-13.4-2.6c-4.9,0-9.4,0.9-13.4,2.6c-4,1.7-7.3,4.1-10.1,7c-2.7,3-4.9,6.5-6.4,10.7
	C1034.6,125.3,1033.8,129.9,1033.8,134.8z"/>
<path d="M1205.7,102.1h-26.6v44.3c0,2.7,0.1,5.5,0.2,8.1c0.1,2.7,0.7,5.1,1.5,7.2c0.9,2.1,2.3,3.8,4.1,5.1c1.9,1.3,4.6,2,8.1,2
	c2.2,0,4.5-0.2,6.8-0.6c2.3-0.4,4.5-1.2,6.4-2.3v16.9c-2.2,1.2-5,2.1-8.5,2.6c-3.5,0.5-6.2,0.7-8.1,0.7c-7.1,0-12.7-1-16.6-3
	s-6.8-4.6-8.6-7.7c-1.9-3.2-3-6.7-3.3-10.6c-0.3-3.9-0.5-7.9-0.5-11.8v-50.9h-21.4V86h21.4V58.6h18.5V86h26.6V102.1z"/>
<path d="M1251.9,141.6c0,4.3,0.9,8.1,2.8,11.6c1.9,3.5,4.3,6.5,7.3,9c3,2.5,6.5,4.4,10.5,5.8c4,1.4,8.1,2.1,12.4,2.1
	c5.8,0,10.8-1.3,15-4c4.3-2.7,8.2-6.2,11.7-10.6l14,10.7c-10.3,13.3-24.7,20-43.2,20c-7.7,0-14.7-1.3-20.9-3.9
	c-6.2-2.6-11.5-6.2-15.9-10.8c-4.3-4.6-7.7-10-10-16.3c-2.3-6.2-3.5-13-3.5-20.3c0-7.3,1.3-14,3.8-20.3c2.5-6.2,6-11.7,10.5-16.3
	c4.5-4.6,9.8-8.2,16-10.8c6.2-2.6,12.9-3.9,20.2-3.9c8.6,0,16,1.5,21.9,4.5c6,3,10.9,7,14.7,11.8c3.8,4.9,6.6,10.4,8.3,16.5
	c1.7,6.1,2.6,12.3,2.6,18.6v6.6H1251.9z M1310.4,126.8c-0.1-4.1-0.8-7.9-2-11.3c-1.2-3.4-2.9-6.4-5.3-9c-2.3-2.5-5.2-4.5-8.8-6
	c-3.5-1.4-7.6-2.2-12.3-2.2c-4.5,0-8.7,0.9-12.5,2.6c-3.8,1.7-7,3.9-9.6,6.7c-2.6,2.7-4.6,5.8-6.1,9.2c-1.4,3.4-2.2,6.7-2.2,10
	H1310.4z"/>
<path d="M1412.5,110.5c-2.2-2.7-4.9-5-8.1-6.9c-3.2-1.9-7.2-2.8-11.8-2.8c-4.4,0-8.2,0.9-11.4,2.8c-3.2,1.9-4.8,4.6-4.8,8.1
	c0,2.9,0.9,5.2,2.8,7c1.9,1.8,4,3.2,6.6,4.3c2.5,1.1,5.3,1.9,8.1,2.5c2.9,0.6,5.4,1,7.4,1.4c4,1,7.7,2.1,11.2,3.5
	c3.5,1.4,6.5,3.2,9.1,5.4c2.5,2.2,4.5,4.9,6,8c1.4,3.2,2.2,7,2.2,11.5c0,5.5-1.2,10.2-3.5,14.1c-2.3,3.9-5.4,7.1-9.1,9.6
	c-3.7,2.5-7.9,4.3-12.7,5.4c-4.7,1.1-9.5,1.6-14.3,1.6c-8.1,0-15.2-1.2-21.3-3.7c-6.1-2.5-11.6-7-16.4-13.6l14-11.5
	c3,3,6.4,5.7,10.1,8c3.7,2.3,8.2,3.5,13.6,3.5c2.3,0,4.7-0.2,7.1-0.7c2.4-0.5,4.5-1.2,6.4-2.3c1.9-1,3.4-2.3,4.5-3.9
	c1.2-1.6,1.8-3.4,1.8-5.5c0-2.7-0.9-5-2.6-6.8c-1.7-1.8-3.8-3.2-6.2-4.2c-2.4-1-4.9-1.9-7.6-2.5c-2.7-0.6-5-1.1-7.1-1.5
	c-4-1-7.8-2.1-11.3-3.3c-3.6-1.2-6.7-2.9-9.5-4.9c-2.7-2.1-4.9-4.7-6.6-7.8c-1.6-3.2-2.5-7.1-2.5-11.7c0-5.1,1.1-9.5,3.2-13.3
	c2.1-3.8,4.9-6.9,8.4-9.4c3.5-2.5,7.5-4.3,11.9-5.6c4.5-1.2,9-1.9,13.5-1.9c6.6,0,12.9,1.2,18.9,3.7c6,2.5,10.8,6.6,14.4,12.4
	L1412.5,110.5z"/>
</svg>
