<?xml version="1.0" encoding="utf-8"?>
<!-- Generator: Adobe Illustrator 20.1.0, SVG Export Plug-In . SVG Version: 6.00 Build 0)  -->
<svg version="1.1" xmlns="http://www.w3.org/2000/svg" xmlns:xlink="http://www.w3.org/1999/xlink" x="0px" y="0px"
	 viewBox="0 0 1989.2 306" style="enable-background:new 0 0 1989.2 306;" xml:space="preserve">
<style type="text/css">
	.st0{fill:#FFFFFF;}
</style>
<g id="Layer_1">
	<path class="st0" d="M482.1,148.2v72c-3.6,2.2-7.6,4.1-12.2,5.8c-4.5,1.7-9.3,3.1-14.1,4.2c-4.9,1.2-9.8,2-14.9,2.6
		c-5,0.5-9.7,0.8-14.1,0.8c-12.4,0-23.4-2.1-33.1-6.2c-9.7-4.1-17.9-9.7-24.6-16.7c-6.7-7-11.8-15.2-15.3-24.5
		c-3.5-9.3-5.3-19.1-5.3-29.4c0-10.9,1.9-21,5.7-30.3c3.8-9.4,9-17.5,15.7-24.4c6.7-6.9,14.7-12.3,24-16.2
		c9.4-3.9,19.6-5.9,30.7-5.9c13.5,0,24.5,1.7,33,5.1c8.5,3.4,15.7,8,21.5,13.9l-14,15.1c-6.1-5.8-12.5-9.8-19.2-12.1
		c-6.7-2.3-13.8-3.4-21.3-3.4c-8.4,0-16,1.5-22.7,4.6c-6.7,3.1-12.5,7.3-17.3,12.5c-4.8,5.2-8.5,11.4-11.1,18.5
		c-2.6,7.1-3.9,14.6-3.9,22.6c0,8.3,1.4,15.9,4.3,23c2.9,7.1,6.9,13.2,12,18.5c5.1,5.2,11.1,9.3,18,12.3c6.9,3,14.4,4.4,22.5,4.4
		c7,0,13.7-0.7,19.9-2c6.3-1.3,11.6-3.2,16-5.7v-40.7h-32.4v-18.6H482.1z"/>
	<path class="st0" d="M547.1,83.8h51.4c9.4,0,17.1,1.3,23.1,3.8c6.1,2.5,10.8,5.8,14.3,9.7c3.5,3.9,5.9,8.3,7.3,13.2
		c1.4,4.9,2.1,9.6,2.1,14.1c0,4.7-0.8,9.2-2.5,13.5c-1.7,4.3-4,8.3-7.1,11.8c-3.1,3.5-6.9,6.5-11.4,8.9c-4.5,2.4-9.5,3.9-15,4.4
		l41.5,66.7h-24.8L589,165.6h-22.1v64.4h-19.8V83.8z M566.9,148.2h26c3.9,0,7.7-0.3,11.5-0.9c3.8-0.6,7.2-1.8,10.1-3.4
		c3-1.7,5.3-4,7.1-7.1c1.8-3.1,2.7-7.1,2.7-12.1s-0.9-9-2.7-12.1c-1.8-3.1-4.2-5.5-7.1-7.1c-3-1.7-6.3-2.8-10.1-3.4
		c-3.8-0.6-7.6-0.9-11.5-0.9h-26V148.2z"/>
	<path class="st0" d="M752.5,83.8h18L833,229.9h-23.1l-14.7-36.1h-69.6l-14.4,36.1h-23.1L752.5,83.8z M788,176.5l-27.2-67.1h-0.4
		l-27.7,67.1H788z"/>
	<path class="st0" d="M888.3,102.4h-47.1V83.8h113.9v18.6h-47.1v127.5h-19.8V102.4z"/>
	<path class="st0" d="M1001.1,83.8h94.3v18.6h-74.5V146h69.3v18.6h-69.3v46.8h78.2v18.6h-98V83.8z"/>
	<path class="st0" d="M1207.2,83.8h26l80.5,120.1h0.4V83.8h19.8v146.1h-25.2l-81.3-120.1h-0.4v120.1h-19.8V83.8z"/>
	<path class="st0" d="M1462.1,233.7c-11.1,0-21.4-2-30.7-5.9c-9.4-3.9-17.4-9.3-24-16.2c-6.7-6.9-11.9-15-15.7-24.4
		c-3.8-9.4-5.7-19.5-5.7-30.3c0-10.9,1.9-21,5.7-30.3c3.8-9.4,9-17.5,15.7-24.4c6.7-6.9,14.7-12.3,24-16.2
		c9.4-3.9,19.6-5.9,30.7-5.9c11.1,0,21.4,2,30.8,5.9c9.4,3.9,17.4,9.3,24,16.2c6.7,6.9,11.9,15,15.7,24.4c3.8,9.4,5.7,19.5,5.7,30.3
		c0,10.9-1.9,21-5.7,30.3c-3.8,9.4-9,17.5-15.7,24.4c-6.7,6.9-14.7,12.3-24,16.2C1483.5,231.7,1473.2,233.7,1462.1,233.7z
		 M1462.1,215.1c8.4,0,16-1.5,22.7-4.6c6.7-3.1,12.5-7.3,17.3-12.5c4.8-5.2,8.5-11.4,11.1-18.5c2.6-7.1,3.9-14.6,3.9-22.6
		c0-8-1.3-15.5-3.9-22.6c-2.6-7.1-6.3-13.2-11.1-18.5c-4.8-5.2-10.6-9.4-17.3-12.5c-6.7-3.1-14.3-4.6-22.7-4.6s-16,1.5-22.7,4.6
		c-6.7,3.1-12.5,7.3-17.3,12.5c-4.8,5.2-8.5,11.4-11.1,18.5c-2.6,7.1-3.9,14.6-3.9,22.6c0,8,1.3,15.5,3.9,22.6
		c2.6,7.1,6.3,13.2,11.1,18.5c4.8,5.2,10.6,9.4,17.3,12.5C1446.1,213.5,1453.7,215.1,1462.1,215.1z"/>
	<path class="st0" d="M1618.3,102.4h-47.1V83.8h113.9v18.6h-47.1v127.5h-19.8V102.4z"/>
	<path class="st0" d="M1734.7,83.8h94.3v18.6h-74.5V146h69.3v18.6h-69.3v46.8h78.2v18.6h-98V83.8z"/>
	<path class="st0" d="M1895.7,199.4c3.6,5.4,8.2,9.3,13.7,11.9c5.6,2.5,11.3,3.8,17.2,3.8c3.3,0,6.7-0.5,10.1-1.5
		c3.4-1,6.6-2.6,9.4-4.6c2.8-2.1,5.1-4.6,6.9-7.6c1.8-3,2.7-6.5,2.7-10.5c0-5.6-1.8-9.9-5.4-12.9c-3.6-3-8-5.4-13.3-7.4
		c-5.3-2-11.1-3.9-17.3-5.8c-6.3-1.9-12-4.4-17.3-7.7c-5.3-3.3-9.7-7.7-13.3-13.3c-3.6-5.6-5.4-13.1-5.4-22.6
		c0-4.3,0.9-8.8,2.8-13.6c1.9-4.8,4.8-9.2,8.8-13.2c4-4,9.1-7.3,15.4-10c6.3-2.7,13.8-4,22.6-4c8,0,15.6,1.1,22.9,3.3
		c7.3,2.2,13.7,6.7,19.2,13.4l-16.1,14.7c-2.5-3.8-6-6.9-10.5-9.3c-4.5-2.3-9.7-3.5-15.5-3.5c-5.5,0-10.1,0.7-13.7,2.2
		c-3.6,1.4-6.6,3.3-8.8,5.6c-2.2,2.3-3.8,4.7-4.6,7.3c-0.9,2.6-1.3,5-1.3,7.2c0,6.2,1.8,10.9,5.4,14.2c3.6,3.3,8,6,13.3,8
		c5.3,2.1,11.1,3.9,17.3,5.6c6.3,1.6,12,4,17.3,6.9c5.3,3,9.7,6.9,13.3,12c3.6,5,5.4,11.9,5.4,20.7c0,7-1.3,13.3-4,19
		c-2.7,5.6-6.3,10.4-10.8,14.2c-4.5,3.9-9.9,6.8-16.1,8.9c-6.2,2.1-12.8,3.1-19.8,3.1c-9.4,0-18.2-1.7-26.6-5
		c-8.4-3.3-15.1-8.4-20-15.3L1895.7,199.4z"/>
	<path class="st0" d="M131.8,289.6c5,0,9.1-4.1,9.1-9.1v-0.9v-23.2h0v-140h-0.1v0c0-6.7-5.5-12.2-12.2-12.2H118
		c-6.7,0-12.2,5.5-12.2,12.2v0h0v138.4c0,0.9-0.7,1.6-1.6,1.6H64.9c-6.7,0-12.2-5.5-12.2-12.2V63.7c0-6.7,5.5-12.2,12.2-12.2h180.5
		c6.7,0,12.2,5.5,12.2,12.2v180.5c0,6.7-5.5,12.2-12.2,12.2h-28.6v0c-6.5,0.1-11.8,5.5-11.8,12v9c0,6.7,5.5,12.2,12.2,12.2h50.9
		c0.2,0,0.4,0,0.7,0c0,0,0.1,0,0.1,0h9.7c6.7,0,12.2-5.5,12.2-12.2V30.5c0-6.7-5.5-12.2-12.2-12.2H31.7c-6.7,0-12.2,5.5-12.2,12.2
		v246.9c0,6.7,5.5,12.2,12.2,12.2h74.1v0h23.6L131.8,289.6z"/>
</g>
<g id="Layer_2">
</g>
<g id="Layer_3">
</g>
<g id="Layer_4">
</g>
<g id="Layer_5">
</g>
<g id="Layer_6">
</g>
<g id="Layer_7">
</g>
</svg>
