<?xml version="1.0" encoding="utf-8"?>
<!-- Generator: Adobe Illustrator 20.1.0, SVG Export Plug-In . SVG Version: 6.00 Build 0)  -->
<svg version="1.1" id="Layer_1" xmlns="http://www.w3.org/2000/svg" xmlns:xlink="http://www.w3.org/1999/xlink" x="0px" y="0px"
	 viewBox="0 0 1436 232.1" style="enable-background:new 0 0 1436 232.1;" xml:space="preserve">
<style type="text/css">
	.st0{fill:url(#SVGID_1_);}
	.st1{font-family:'Avenir-Medium';}
	.st2{font-size:205.9137px;}
	.st3{letter-spacing:-4;}
	.st4{letter-spacing:4;}
	.st5{letter-spacing:12;}
	.st6{letter-spacing:8;}
	.st7{letter-spacing:53;}
	.st8{fill:#EC008C;}
</style>
<linearGradient id="SVGID_1_" gradientUnits="userSpaceOnUse" x1="-8.569117e-02" y1="116.7241" x2="231.9745" y2="116.7241">
	<stop  offset="0" style="stop-color:#175A9D"/>
	<stop  offset="0.6311" style="stop-color:#3F98A1"/>
	<stop  offset="1" style="stop-color:#57C09C"/>
</linearGradient>
<path class="st0" d="M224.4,0.7H7.5c-4.2,0-7.6,3.4-7.6,7.6v216.9c0,4.2,3.4,7.6,7.6,7.6h96c0.1,0,0.2,0,0.3,0h1.3
	c2.5,0,4.5-2,4.5-4.5v-104c0-2.5-2-4.5-4.5-4.5H73.3c-2.5,0-4.5,2-4.5,4.5v68.4H47.7c-4.2,0-7.6-3.4-7.6-7.6V48.5
	c0-4.2,3.4-7.6,7.6-7.6h136.5c4.2,0,7.6,3.4,7.6,7.6V185c0,4-3.2,7.3-7.1,7.5H147c-2.5,0-4.5,2-4.5,4.5v31.1c0,2.5,2,4.5,4.5,4.5
	h61.9c0,0,0,0,0.1,0h15.4c4.2,0,7.6-3.4,7.6-7.6V8.3C232,4.1,228.6,0.7,224.4,0.7z"/>
<text transform="matrix(1 0 0 1 278.1136 183.6046)"><tspan x="0" y="0" class="st1 st2 st3">G</tspan><tspan x="156.1" y="0" class="st1 st2 st4">r</tspan><tspan x="236.4" y="0" class="st1 st2 st5">a</tspan><tspan x="355.6" y="0" class="st1 st2 st6">te</tspan><tspan x="562.8" y="0" class="st1 st2">N</tspan><tspan x="726.7" y="0" class="st1 st2 st5">o</tspan><tspan x="861.3" y="0" class="st1 st2 st6">te</tspan><tspan x="1068.5" y="0" class="st1 st2 st7">s</tspan></text>
<rect x="2470.9" y="706.3" class="st8" width="26.3" height="127"/>
<rect x="2470.7" y="706.3" class="st8" width="26.3" height="127"/>
<rect x="2470.5" y="706.3" class="st8" width="26.3" height="127"/>
</svg>
