<?xml version="1.0" encoding="utf-8"?>
<!-- Generator: Adobe Illustrator 20.1.0, SVG Export Plug-In . SVG Version: 6.00 Build 0)  -->
<svg version="1.1" xmlns="http://www.w3.org/2000/svg" xmlns:xlink="http://www.w3.org/1999/xlink" x="0px" y="0px"
	 viewBox="0 0 1915.3 232.1" style="enable-background:new 0 0 1915.3 232.1;" xml:space="preserve">
<style type="text/css">
	.st0{fill:url(#SVGID_1_);}
	.st1{fill:url(#SVGID_2_);}
</style>
<g id="Layer_1">
	<g>
		<path d="M420.6,115.6v72c-3.6,2.2-7.6,4.1-12.2,5.8c-4.5,1.7-9.3,3.1-14.1,4.2c-4.9,1.2-9.8,2-14.9,2.6c-5,0.5-9.7,0.8-14.1,0.8
			c-12.4,0-23.4-2.1-33.1-6.2c-9.7-4.1-17.9-9.7-24.6-16.7c-6.7-7-11.8-15.2-15.3-24.5c-3.5-9.3-5.3-19.1-5.3-29.4
			c0-10.9,1.9-21,5.7-30.3c3.8-9.4,9-17.5,15.7-24.4c6.7-6.9,14.7-12.3,24-16.2c9.4-3.9,19.6-5.9,30.7-5.9c13.5,0,24.5,1.7,33,5.1
			c8.5,3.4,15.7,8,21.5,13.9l-14,15.1c-6.1-5.8-12.5-9.8-19.2-12.1c-6.7-2.3-13.8-3.4-21.3-3.4c-8.4,0-16,1.5-22.7,4.6
			c-6.7,3.1-12.5,7.3-17.3,12.5c-4.8,5.2-8.5,11.4-11.1,18.5c-2.6,7.1-3.9,14.6-3.9,22.6c0,8.3,1.4,15.9,4.3,23
			c2.9,7.1,6.9,13.2,12,18.5c5.1,5.2,11.1,9.3,18,12.3c6.9,3,14.4,4.4,22.5,4.4c7,0,13.7-0.7,19.9-2c6.3-1.3,11.6-3.2,16-5.7v-40.7
			h-32.4v-18.6H420.6z"/>
		<path d="M485.6,51.2H537c9.4,0,17.1,1.3,23.1,3.8c6.1,2.5,10.8,5.8,14.3,9.7c3.5,3.9,5.9,8.3,7.3,13.2c1.4,4.9,2.1,9.6,2.1,14.1
			c0,4.7-0.8,9.2-2.5,13.5c-1.7,4.3-4,8.3-7.1,11.8c-3.1,3.5-6.9,6.5-11.4,8.9c-4.5,2.4-9.5,3.9-15,4.4l41.5,66.7h-24.8l-37.1-64.4
			h-22.1v64.4h-19.8V51.2z M505.4,115.6h26c3.9,0,7.7-0.3,11.5-0.9c3.8-0.6,7.2-1.8,10.1-3.4c3-1.7,5.3-4,7.1-7.1
			c1.8-3.1,2.7-7.1,2.7-12.1c0-5-0.9-9-2.7-12.1c-1.8-3.1-4.2-5.5-7.1-7.1c-3-1.7-6.3-2.8-10.1-3.4c-3.8-0.6-7.6-0.9-11.5-0.9h-26
			V115.6z"/>
		<path d="M691,51.2h18l62.5,146.1h-23.1l-14.7-36.1h-69.6l-14.4,36.1h-23.1L691,51.2z M726.5,143.9l-27.2-67.1h-0.4l-27.7,67.1
			H726.5z"/>
		<path d="M826.8,69.8h-47.1V51.2h113.9v18.6h-47.1v127.5h-19.8V69.8z"/>
		<path d="M939.6,51.2h94.3v18.6h-74.5v43.5h69.3v18.6h-69.3v46.8h78.2v18.6h-98V51.2z"/>
		<path d="M1145.7,51.2h26l80.5,120.1h0.4V51.2h19.8v146.1h-25.2L1166,77.2h-0.4v120.1h-19.8V51.2z"/>
		<path d="M1400.6,201c-11.1,0-21.4-2-30.7-5.9c-9.4-3.9-17.4-9.3-24-16.2c-6.7-6.9-11.9-15-15.7-24.4c-3.8-9.4-5.7-19.5-5.7-30.3
			c0-10.9,1.9-21,5.7-30.3c3.8-9.4,9-17.5,15.7-24.4c6.7-6.9,14.7-12.3,24-16.2c9.4-3.9,19.6-5.9,30.7-5.9c11.1,0,21.4,2,30.8,5.9
			c9.4,3.9,17.4,9.3,24,16.2c6.7,6.9,11.9,15,15.7,24.4c3.8,9.4,5.7,19.5,5.7,30.3c0,10.9-1.9,21-5.7,30.3
			c-3.8,9.4-9,17.5-15.7,24.4c-6.7,6.9-14.7,12.3-24,16.2C1422,199.1,1411.7,201,1400.6,201z M1400.6,182.5c8.4,0,16-1.5,22.7-4.6
			c6.7-3.1,12.5-7.3,17.3-12.5c4.8-5.2,8.5-11.4,11.1-18.5c2.6-7.1,3.9-14.6,3.9-22.6c0-8-1.3-15.5-3.9-22.6
			c-2.6-7.1-6.3-13.2-11.1-18.5c-4.8-5.2-10.6-9.4-17.3-12.5c-6.7-3.1-14.3-4.6-22.7-4.6s-16,1.5-22.7,4.6
			c-6.7,3.1-12.5,7.3-17.3,12.5c-4.8,5.2-8.5,11.4-11.1,18.5c-2.6,7.1-3.9,14.6-3.9,22.6c0,8,1.3,15.5,3.9,22.6
			c2.6,7.1,6.3,13.2,11.1,18.5c4.8,5.2,10.6,9.4,17.3,12.5C1384.6,180.9,1392.2,182.5,1400.6,182.5z"/>
		<path d="M1556.8,69.8h-47.1V51.2h113.9v18.6h-47.1v127.5h-19.8V69.8z"/>
		<path d="M1673.2,51.2h94.3v18.6H1693v43.5h69.3v18.6H1693v46.8h78.2v18.6h-98V51.2z"/>
		<path d="M1834.2,166.8c3.6,5.4,8.2,9.3,13.7,11.9c5.6,2.5,11.3,3.8,17.2,3.8c3.3,0,6.7-0.5,10.1-1.5c3.4-1,6.6-2.6,9.4-4.6
			c2.8-2.1,5.1-4.6,6.9-7.6c1.8-3,2.7-6.5,2.7-10.5c0-5.6-1.8-9.9-5.4-12.9c-3.6-3-8-5.4-13.3-7.4c-5.3-2-11.1-3.9-17.3-5.8
			c-6.3-1.9-12-4.4-17.3-7.7c-5.3-3.3-9.7-7.7-13.3-13.3c-3.6-5.6-5.4-13.1-5.4-22.6c0-4.3,0.9-8.8,2.8-13.6
			c1.9-4.8,4.8-9.2,8.8-13.2c4-4,9.1-7.3,15.4-10c6.3-2.7,13.8-4,22.6-4c8,0,15.6,1.1,22.9,3.3c7.3,2.2,13.7,6.7,19.2,13.4
			l-16.1,14.7c-2.5-3.8-6-6.9-10.5-9.3c-4.5-2.3-9.7-3.5-15.5-3.5c-5.5,0-10.1,0.7-13.7,2.2c-3.6,1.4-6.6,3.3-8.8,5.6
			c-2.2,2.3-3.8,4.7-4.6,7.3c-0.9,2.6-1.3,5-1.3,7.2c0,6.2,1.8,10.9,5.4,14.2c3.6,3.3,8,6,13.3,8c5.3,2.1,11.1,3.9,17.3,5.6
			c6.3,1.6,12,4,17.3,6.9c5.3,3,9.7,6.9,13.3,12c3.6,5,5.4,11.9,5.4,20.7c0,7-1.3,13.3-4,19c-2.7,5.6-6.3,10.4-10.8,14.2
			c-4.5,3.9-9.9,6.8-16.1,8.9c-6.2,2.1-12.8,3.1-19.8,3.1c-9.4,0-18.2-1.7-26.6-5c-8.4-3.3-15.1-8.4-20-15.3L1834.2,166.8z"/>
		<linearGradient id="SVGID_1_" gradientUnits="userSpaceOnUse" x1="0" y1="116.032" x2="232.0602" y2="116.032">
			<stop  offset="0" style="stop-color:#175A9D"/>
			<stop  offset="0.6311" style="stop-color:#3F98A1"/>
			<stop  offset="1" style="stop-color:#57C09C"/>
		</linearGradient>
		<path class="st0" d="M224.5,0H7.6C3.4,0,0,3.4,0,7.6v216.9c0,4.2,3.4,7.6,7.6,7.6h96c0.1,0,0.2,0,0.3,0h1.3c2.5,0,4.5-2,4.5-4.5
			v-104c0-2.5-2-4.5-4.5-4.5H73.4c-2.5,0-4.5,2-4.5,4.5v68.4H47.8c-4.2,0-7.6-3.4-7.6-7.6V47.8c0-4.2,3.4-7.6,7.6-7.6h136.5
			c4.2,0,7.6,3.4,7.6,7.6v136.5c0,4-3.2,7.3-7.1,7.5h-37.7c-2.5,0-4.5,2-4.5,4.5v31.1c0,2.5,2,4.5,4.5,4.5H209c0,0,0,0,0.1,0h15.4
			c4.2,0,7.6-3.4,7.6-7.6V7.6C232.1,3.4,228.7,0,224.5,0z"/>
	</g>
</g>
<g id="Layer_2">
</g>
<g id="Layer_3">
</g>
<g id="Layer_4">
</g>
<g id="Layer_5">
</g>
<g id="Layer_6">
</g>
<g id="Layer_7">
</g>
</svg>
